<?xml version="1.0" standalone="no"?>
<!DOCTYPE svg PUBLIC "-//W3C//DTD SVG 20010904//EN"
 "http://www.w3.org/TR/2001/REC-SVG-20010904/DTD/svg10.dtd">
<svg version="1.0" xmlns="http://www.w3.org/2000/svg"
 width="103.000000pt" height="103.000000pt" viewBox="0 0 103.000000 103.000000"
 preserveAspectRatio="xMidYMid meet">
<metadata>
Created by potrace 1.11, written by Peter Selinger 2001-2013
</metadata>
<g transform="translate(0.000000,103.000000) scale(0.100000,-0.100000)"
fill="#000000" stroke="none">
<path d="M195 966 c-16 -7 -39 -23 -50 -36 -19 -21 -20 -36 -19 -418 l1 -396
33 -27 c45 -38 83 -45 131 -24 58 26 67 71 68 328 1 59 4 107 9 107 4 0 76
-90 161 -200 84 -110 166 -210 182 -221 50 -35 88 -35 136 0 l43 31 1 73 c6
393 5 687 -2 711 -21 71 -90 102 -159 71 -58 -26 -67 -70 -69 -327 -1 -60 -4
-108 -8 -108 -5 1 -33 33 -62 73 -106 140 -259 332 -279 350 -26 24 -80 30
-117 13z"/>
</g>
</svg>
